<svg version="1.1" xmlns="http://www.w3.org/2000/svg" style="display: block;" viewBox="0 0 1976 1976" width="494" height="494" preserveAspectRatio="none">
<defs>
	<linearGradient id="Gradient1" gradientUnits="userSpaceOnUse" x1="1961.65" y1="802.293" x2="410.371" y2="799.795">
		<stop class="stop0" offset="0" stop-opacity="1" stop-color="rgb(37,143,164)"/>
		<stop class="stop1" offset="1" stop-opacity="1" stop-color="rgb(31,167,156)"/>
	</linearGradient>
</defs>
<path transform="translate(0,0)" fill="url(#Gradient1)" d="M 665.421 36.8537 L 1154.51 36.8635 L 1281.07 36.8175 C 1302.53 36.7972 1328.2 35.8429 1349.31 38.4501 C 1362.11 40.0314 1374.39 54.6888 1383.66 64.0021 L 1766.15 450.729 C 1824.63 509.341 1882.77 567.839 1939.88 627.75 C 1961.39 650.31 1962.87 662.209 1962.79 692.838 C 1962.47 806.397 1962.11 920.016 1962.94 1033.57 C 1963.18 1060.37 1961.04 1112.13 1963.86 1135.95 C 1967.03 1154.37 1966.07 1178.95 1964.91 1197.33 C 1962.43 1208.45 1954.58 1222.86 1945.81 1229.19 C 1939 1239.49 1918.67 1258.66 1908.92 1268.34 L 1852.24 1324.73 C 1812.48 1366.95 1767.9 1408.05 1727.44 1449.94 C 1711.33 1466.62 1687.47 1488.11 1673.64 1505.38 C 1667.51 1515.09 1653.15 1528.32 1644.16 1535.61 C 1631.08 1548.76 1617.33 1560.31 1604.21 1573.12 C 1596.84 1582.87 1591.65 1590.16 1581.29 1596.87 C 1574.09 1603.66 1565.59 1612.14 1558.93 1619.45 C 1550.61 1632.99 1524.21 1656.21 1512.3 1669.08 C 1508.01 1673.72 1496.7 1686.49 1492.94 1690.28 C 1488.6 1696.88 1443.45 1742.62 1435.55 1749.1 C 1430.54 1755.25 1419.57 1765.62 1413.7 1771.5 L 1371.97 1813.28 L 1282.27 1903.12 C 1269.79 1915.61 1254.38 1931.94 1240.5 1943.06 C 1239.18 1944.11 1227.46 1945.56 1225.16 1945.7 C 1194.05 1947.59 1161.14 1946.88 1129.95 1946.89 L 950.171 1946.91 L 751.705 1946.87 C 712.985 1946.82 672.4 1947.58 633.856 1944.36 C 623.388 1943.48 616.492 1939.22 608.578 1932.28 C 592.8 1918.43 577.819 1901.93 562.702 1887.24 C 559.54 1884.16 543.326 1868.05 541.778 1865.84 C 538.101 1862.63 533.339 1857.83 529.957 1854.23 C 508.096 1830.95 481.568 1808.64 461.284 1784.16 C 460.574 1783.57 452.734 1774.5 451.132 1772.76 C 443.796 1764.83 436.316 1757.04 428.695 1749.38 C 416.739 1737.35 404.611 1725.48 392.314 1713.79 C 387.834 1709.53 376.186 1699.29 372.888 1694.89 C 365.145 1690.24 356.374 1680.57 351.012 1673.34 C 350.751 1673.12 344.221 1665.49 343.259 1664.44 C 337.498 1658.18 331.666 1652.33 325.664 1646.3 L 247.134 1567.74 L 123.435 1444.08 C 91.8268 1412.68 60.3379 1381.21 28.9738 1349.56 C 17.5212 1338.01 11.5798 1331.75 10.8646 1314.94 C 9.60034 1285.23 10.1274 1255.36 10.1233 1225.61 L 10.1232 1058.96 L 10.1661 795.246 C 10.1579 774.413 7.42513 679.401 12.1192 665.217 C 19.756 642.14 59.6211 610.61 76.3575 590.542 C 82.7481 580.863 124.472 540.616 134.832 530.486 C 138.787 525.393 158.015 506.799 163.471 501.329 L 224.702 439.962 C 244.811 419.802 262.295 400.598 281.476 379.809 C 301.669 357.922 324.645 336.206 345.796 314.971 L 413.896 246.739 C 430.184 230.475 449.129 212.032 464.15 194.795 C 471.017 184.243 553.549 101.727 564.766 94.1935 C 576.44 84.3198 589.789 70.5275 600.719 59.8069 C 627.079 33.9512 630.801 36.5966 665.421 36.8537 z M 757.785 469.049 C 751.617 478.655 727.695 501.445 718.105 511.012 L 648.438 580.57 L 613.92 615.041 C 611.141 617.811 600.493 628.773 598.39 630.325 C 587.604 642.52 572.709 656.696 560.883 668.576 C 536.017 693.128 511.46 717.991 487.219 743.159 C 479.657 751.037 467.957 761.643 461.609 769.257 C 451.91 782.853 427.393 805.576 414.638 818.309 L 347.874 885.19 C 333.959 899.081 318.792 913.553 305.509 927.917 C 300.967 934.291 299.175 936.994 296.262 944.574 C 458.653 1111.46 622.643 1276.78 788.209 1440.52 L 904.135 1556.62 C 910.152 1562.63 946.499 1598.06 949.449 1602.95 C 960.878 1593.54 981.014 1572.19 992.346 1561.01 C 999.602 1550.61 1018.82 1534.48 1028.18 1524.41 C 1045.58 1505.67 1065.61 1488.57 1081.92 1468.63 C 1096.45 1450.88 1116.46 1436.78 1131.25 1419.88 C 1144.3 1404.41 1159.32 1389.91 1173.65 1375.56 C 1191.78 1357.3 1210.02 1339.16 1228.37 1321.12 C 1231.53 1316.44 1270.79 1278.14 1276.92 1271.98 L 1384.34 1164.3 C 1402.08 1146.52 1428.7 1121.32 1444.43 1102.87 C 1455.25 1088.57 1483.46 1061.69 1497.3 1047.91 C 1527.47 1017.87 1557.86 986.701 1588.37 957.096 C 1591.22 952.829 1608.31 936.713 1612.98 931.772 C 1634.94 908.532 1662.34 884.57 1683.14 860.754 C 1685.22 857.966 1691.91 849.497 1691.36 846.745 C 1688.91 834.427 1669.55 818.365 1661.9 810.309 C 1643.27 790.674 1622.48 772.61 1604.69 752.69 C 1570.81 720.459 1536.85 684.179 1503.08 651.414 C 1489.89 638.616 1452.06 601.758 1443.21 589.142 C 1441.46 588.058 1437.94 583.153 1435.91 581.61 C 1420.35 569.805 1409.78 554.843 1396.44 541.127 C 1377.97 522.405 1359.15 504.037 1339.98 486.032 C 1327.59 474.26 1316.98 465.446 1306.46 451.579 C 1300.52 443.741 1291.11 435.637 1284.28 428.324 C 1276.13 419.594 1274.84 418.644 1263.42 418.702 C 1249.26 419.968 1220.11 419.297 1205.29 419.306 L 1093.5 419.183 L 931.212 419.107 C 898.543 419.118 863.987 419.708 831.513 418.564 C 823.659 417.998 812.852 416.366 805.804 419.353 C 792.023 435.403 770.659 452.334 757.785 469.049 z"/>
<path transform="translate(0,0)" fill="rgb(46,192,146)" d="M 564.766 94.1935 C 576.44 84.3198 589.789 70.5275 600.719 59.8069 C 627.079 33.9512 630.801 36.5966 665.421 36.8537 C 665.925 41.4014 661.547 47.0196 658.761 50.921 C 634.192 85.3347 609.314 119.464 585.112 154.164 L 462.815 332.703 C 452.623 347.415 414.053 398.226 408.802 411.363 C 436.802 413.855 480.174 413.151 509.04 413.387 L 700.387 413.961 C 722.164 413.961 743.94 414.134 765.714 414.482 C 775.074 414.63 800.101 412.93 805.804 419.353 C 792.023 435.403 770.659 452.334 757.785 469.049 C 751.617 478.655 727.695 501.445 718.105 511.012 L 648.438 580.57 L 613.92 615.041 C 611.141 617.811 600.493 628.773 598.39 630.325 C 587.604 642.52 572.709 656.696 560.883 668.576 C 536.017 693.128 511.46 717.991 487.219 743.159 C 479.657 751.037 467.957 761.643 461.609 769.257 C 451.91 782.853 427.393 805.576 414.638 818.309 L 347.874 885.19 C 333.959 899.081 318.792 913.553 305.509 927.917 C 300.967 934.291 299.175 936.994 296.262 944.574 C 458.653 1111.46 622.643 1276.78 788.209 1440.52 L 904.135 1556.62 C 910.152 1562.63 946.499 1598.06 949.449 1602.95 L 951.267 1605.56 C 962.219 1617.52 972.081 1627.99 983.647 1639.32 L 1341.29 1638.46 L 1429.29 1637.5 C 1463.14 1637.05 1495.54 1636.45 1529.16 1631.16 C 1541.62 1629.2 1548.26 1624.47 1558.93 1619.45 C 1550.61 1632.99 1524.21 1656.21 1512.3 1669.08 C 1508.01 1673.72 1496.7 1686.49 1492.94 1690.28 C 1488.6 1696.88 1443.45 1742.62 1435.55 1749.1 C 1430.54 1755.25 1419.57 1765.62 1413.7 1771.5 L 1371.97 1813.28 L 1282.27 1903.12 C 1269.79 1915.61 1254.38 1931.94 1240.5 1943.06 C 1239.18 1944.11 1227.46 1945.56 1225.16 1945.7 C 1194.05 1947.59 1161.14 1946.88 1129.95 1946.89 L 950.171 1946.91 L 751.705 1946.87 C 712.985 1946.82 672.4 1947.58 633.856 1944.36 C 623.388 1943.48 616.492 1939.22 608.578 1932.28 C 592.8 1918.43 577.819 1901.93 562.702 1887.24 C 559.54 1884.16 543.326 1868.05 541.778 1865.84 C 538.101 1862.63 533.339 1857.83 529.957 1854.23 C 508.096 1830.95 481.568 1808.64 461.284 1784.16 C 460.574 1783.57 452.734 1774.5 451.132 1772.76 C 443.796 1764.83 436.316 1757.04 428.695 1749.38 C 416.739 1737.35 404.611 1725.48 392.314 1713.79 C 387.834 1709.53 376.186 1699.29 372.888 1694.89 C 365.145 1690.24 356.374 1680.57 351.012 1673.34 C 350.751 1673.12 344.221 1665.49 343.259 1664.44 C 337.498 1658.18 331.666 1652.33 325.664 1646.3 L 247.134 1567.74 L 123.435 1444.08 C 91.8268 1412.68 60.3379 1381.21 28.9738 1349.56 C 17.5212 1338.01 11.5798 1331.75 10.8646 1314.94 C 9.60034 1285.23 10.1274 1255.36 10.1233 1225.61 L 10.1232 1058.96 L 10.1661 795.246 C 10.1579 774.413 7.42513 679.401 12.1192 665.217 C 19.756 642.14 59.6211 610.61 76.3575 590.542 C 82.7481 580.863 124.472 540.616 134.832 530.486 C 138.787 525.393 158.015 506.799 163.471 501.329 L 224.702 439.962 C 244.811 419.802 262.295 400.598 281.476 379.809 C 301.669 357.922 324.645 336.206 345.796 314.971 L 413.896 246.739 C 430.184 230.475 449.129 212.032 464.15 194.795 C 471.017 184.243 553.549 101.727 564.766 94.1935 z"/>
<path transform="translate(0,0)" fill="rgb(8,115,93)" d="M 408.802 411.363 C 436.802 413.855 480.174 413.151 509.04 413.387 L 700.387 413.961 C 722.164 413.961 743.94 414.134 765.714 414.482 C 775.074 414.63 800.101 412.93 805.804 419.353 C 792.023 435.403 770.659 452.334 757.785 469.049 C 751.617 478.655 727.695 501.445 718.105 511.012 L 648.438 580.57 L 613.92 615.041 C 611.141 617.811 600.493 628.773 598.39 630.325 C 587.604 642.52 572.709 656.696 560.883 668.576 C 536.017 693.128 511.46 717.991 487.219 743.159 C 479.657 751.037 467.957 761.643 461.609 769.257 C 451.91 782.853 427.393 805.576 414.638 818.309 L 347.874 885.19 C 333.959 899.081 318.792 913.553 305.509 927.917 C 305.395 924.859 305.13 923.328 306.058 920.372 C 306.452 909.949 313.283 886.31 315.756 874.307 L 343.178 743.261 C 360.007 664.748 371.94 584.3 389.366 505.932 C 392.319 492.655 406.317 415.409 408.802 411.363 z"/>
<path transform="translate(0,0)" fill="rgb(46,192,146)" d="M 306.058 920.372 C 309.601 916.176 321.423 905.842 326.062 901.365 C 340.09 887.705 354.033 873.957 367.889 860.122 C 396.712 831.691 424.715 802.394 453.574 774.041 C 456 771.657 458.21 769.721 461.609 769.257 C 451.91 782.853 427.393 805.576 414.638 818.309 L 347.874 885.19 C 333.959 899.081 318.792 913.553 305.509 927.917 C 305.395 924.859 305.13 923.328 306.058 920.372 z"/>
<path transform="translate(0,0)" fill="rgb(46,192,146)" d="M 598.39 630.325 L 597.805 629.636 C 604.338 618.691 618.76 605.428 627.919 596.22 L 666.89 556.888 L 721.263 501.99 C 727.497 495.709 751.271 469.838 757.785 469.049 C 751.617 478.655 727.695 501.445 718.105 511.012 L 648.438 580.57 L 613.92 615.041 C 611.141 617.811 600.493 628.773 598.39 630.325 z"/>
<path transform="translate(0,0)" fill="rgb(92,212,172)" d="M 464.15 194.795 C 471.017 184.243 553.549 101.727 564.766 94.1935 L 565.264 97.0428 C 556.101 109.708 532.274 130.677 520.947 142.082 C 510.681 152.419 474.363 192.211 464.15 194.795 z"/>
<path transform="translate(0,0)" fill="rgb(92,212,172)" d="M 461.284 1784.16 C 467.046 1784.48 477.409 1796.45 481.898 1800.99 C 500.521 1819.8 519.413 1838.42 537.653 1857.6 C 540.171 1860.26 541.833 1862 541.778 1865.84 C 538.101 1862.63 533.339 1857.83 529.957 1854.23 C 508.096 1830.95 481.568 1808.64 461.284 1784.16 z"/>
<path transform="translate(0,0)" fill="rgb(92,212,172)" d="M 134.832 530.486 C 133.506 538.221 84.458 588.887 76.3575 590.542 C 82.7481 580.863 124.472 540.616 134.832 530.486 z"/>
<path transform="translate(0,0)" fill="rgb(92,212,172)" d="M 1435.55 1749.1 C 1437.3 1743.17 1485.37 1692.7 1492.94 1690.28 C 1488.6 1696.88 1443.45 1742.62 1435.55 1749.1 z"/>
<path transform="translate(0,0)" fill="rgb(92,212,172)" d="M 351.012 1673.34 C 358.046 1676.14 370.599 1687.55 372.888 1694.89 C 365.145 1690.24 356.374 1680.57 351.012 1673.34 z"/>
<path transform="translate(0,0)" fill="rgb(3,58,95)" d="M 1683.14 860.754 C 1685.28 860.241 1687.42 859.704 1689.56 859.142 L 1690.65 860.05 C 1690.13 877.651 1684.42 914.197 1682.15 933.141 L 1666.56 1065.88 L 1625.24 1417.32 C 1620.78 1452.85 1616.84 1490.41 1611.67 1525.56 C 1610.24 1535.4 1608.57 1545.21 1606.65 1554.97 C 1605.77 1559.33 1603.41 1568.42 1603 1572.31 L 1604.21 1573.12 C 1596.84 1582.87 1591.65 1590.16 1581.29 1596.87 C 1574.09 1603.66 1565.59 1612.14 1558.93 1619.45 C 1548.26 1624.47 1541.62 1629.2 1529.16 1631.16 C 1495.54 1636.45 1463.14 1637.05 1429.29 1637.5 L 1341.29 1638.46 L 983.647 1639.32 C 972.081 1627.99 962.219 1617.52 951.267 1605.56 L 949.449 1602.95 C 960.878 1593.54 981.014 1572.19 992.346 1561.01 C 999.602 1550.61 1018.82 1534.48 1028.18 1524.41 C 1045.58 1505.67 1065.61 1488.57 1081.92 1468.63 C 1096.45 1450.88 1116.46 1436.78 1131.25 1419.88 C 1144.3 1404.41 1159.32 1389.91 1173.65 1375.56 C 1191.78 1357.3 1210.02 1339.16 1228.37 1321.12 C 1231.53 1316.44 1270.79 1278.14 1276.92 1271.98 L 1384.34 1164.3 C 1402.08 1146.52 1428.7 1121.32 1444.43 1102.87 C 1455.25 1088.57 1483.46 1061.69 1497.3 1047.91 C 1527.47 1017.87 1557.86 986.701 1588.37 957.096 C 1591.22 952.829 1608.31 936.713 1612.98 931.772 C 1634.94 908.532 1662.34 884.57 1683.14 860.754 z"/>
<path transform="translate(0,0)" fill="rgb(93,136,154)" d="M 1444.43 1102.87 C 1455.25 1088.57 1483.46 1061.69 1497.3 1047.91 C 1527.47 1017.87 1557.86 986.701 1588.37 957.096 C 1585.1 962.842 1576.37 972.351 1571.54 977.373 C 1536.39 1013.94 1499.98 1049.29 1464.49 1085.53 C 1460.71 1089.38 1449.09 1102.11 1444.43 1102.87 z"/>
<path transform="translate(0,0)" fill="rgb(93,136,154)" d="M 1131.25 1419.88 C 1144.3 1404.41 1159.32 1389.91 1173.65 1375.56 C 1191.78 1357.3 1210.02 1339.16 1228.37 1321.12 C 1223.03 1331.29 1137.69 1418.96 1131.25 1419.88 z"/>
<path transform="translate(0,0)" fill="rgb(93,136,154)" d="M 949.449 1602.95 C 960.878 1593.54 981.014 1572.19 992.346 1561.01 C 987.867 1571.71 960.774 1597.64 951.267 1605.56 L 949.449 1602.95 z"/>
<path transform="translate(0,0)" fill="rgb(93,136,154)" d="M 1603 1572.31 L 1604.21 1573.12 C 1596.84 1582.87 1591.65 1590.16 1581.29 1596.87 C 1583.75 1590.85 1597.59 1578.13 1603 1572.31 z"/>
<path transform="translate(0,0)" fill="rgb(66,164,176)" d="M 831.513 418.564 L 832 417.473 C 921.709 415.288 1016.98 416.806 1107.06 416.875 L 1214.63 416.966 C 1230.54 416.981 1255.37 416.238 1270.71 417.252 C 1268.29 417.764 1265.85 418.248 1263.42 418.702 C 1249.26 419.968 1220.11 419.297 1205.29 419.306 L 1093.5 419.183 L 931.212 419.107 C 898.543 419.118 863.987 419.708 831.513 418.564 z"/>
<path transform="translate(0,0)" fill="rgb(125,200,201)" d="M 1443.21 589.142 C 1451.31 591.793 1482.03 624.896 1489.41 632.345 C 1511.31 654.053 1533.04 675.932 1554.59 697.979 C 1568.79 712.297 1590.16 733.407 1604.27 748.92 C 1604.79 749.489 1604.7 751.815 1604.69 752.69 C 1570.81 720.459 1536.85 684.179 1503.08 651.414 C 1489.89 638.616 1452.06 601.758 1443.21 589.142 z"/>
<path transform="translate(0,0)" fill="rgb(125,200,201)" d="M 1852.24 1324.73 C 1852.23 1324.08 1852.24 1321.76 1852.69 1321.23 C 1879.01 1290.79 1909.57 1261.64 1938.38 1233.41 C 1940.64 1231.19 1943.52 1229.97 1945.81 1229.19 C 1939 1239.49 1918.67 1258.66 1908.92 1268.34 L 1852.24 1324.73 z"/>
<path transform="translate(0,0)" fill="rgb(66,164,176)" d="M 1963.86 1135.95 C 1967.03 1154.37 1966.07 1178.95 1964.91 1197.33 C 1964.82 1197.13 1962.99 1193.48 1962.98 1193.39 C 1961.7 1181.43 1959.33 1144.94 1963.86 1135.95 z"/>
<path transform="translate(0,0)" fill="rgb(125,200,201)" d="M 1644.16 1535.61 C 1644.43 1528.93 1666.74 1506.47 1673.64 1505.38 C 1667.51 1515.09 1653.15 1528.32 1644.16 1535.61 z"/>
</svg>