<svg version="1.1" xmlns="http://www.w3.org/2000/svg" style="display: block;" viewBox="0 0 2048 2048" width="578" height="578" preserveAspectRatio="none">
<defs>
	<linearGradient id="Gradient1" gradientUnits="userSpaceOnUse" x1="1024.68" y1="1334.65" x2="1165.11" y2="407.921">
		<stop class="stop0" offset="0" stop-opacity="1" stop-color="rgb(45,172,135)"/>
		<stop class="stop1" offset="1" stop-opacity="1" stop-color="rgb(84,207,131)"/>
	</linearGradient>
	<linearGradient id="Gradient2" gradientUnits="userSpaceOnUse" x1="2058.3" y1="859.063" x2="404.66" y2="773.194">
		<stop class="stop0" offset="0" stop-opacity="1" stop-color="rgb(38,142,163)"/>
		<stop class="stop1" offset="1" stop-opacity="1" stop-color="rgb(34,165,153)"/>
	</linearGradient>
</defs>
<path transform="translate(0,0)" fill="url(#Gradient2)" d="M 671.708 30.86 C 681.354 29.5977 697.707 30.0855 707.741 30.197 L 763.221 30.7415 L 951.677 31.1067 L 1247 30.8012 L 1338.28 30.3496 C 1362.08 30.328 1400.78 26.7829 1420.43 42.4206 C 1430.08 50.0976 1442.99 64.2724 1451.75 73.2467 L 1507.24 129.689 C 1591.07 212.768 1673.98 296.754 1755.98 381.632 L 1948.59 577.066 C 1963.57 592.376 1979.3 606.807 1994.29 622.286 C 2011.3 639.845 2030.28 653.688 2037 678.437 C 2042.02 696.935 2041.19 711.766 2041.23 730.717 L 2041.3 786.96 L 2041.28 965.975 L 2041.28 1153.97 L 2041.29 1212.34 C 2041.31 1262.84 2042.88 1257.12 2007.54 1292.74 L 1961.84 1338.73 L 1829.1 1473.11 C 1796.5 1505.44 1764.36 1538.23 1732.7 1571.47 C 1715.22 1589.59 1683.66 1623.25 1665.26 1639.03 C 1656.78 1648.7 1645.76 1658.67 1636.54 1668.03 C 1632.02 1672.62 1621.02 1684.52 1616.54 1688.07 C 1603.45 1703.77 1580.8 1724.98 1565.99 1740.15 L 1483.2 1825.85 L 1362.59 1948.22 C 1343.74 1967.44 1325.47 1987.35 1306.33 2006.25 C 1302.79 2009.75 1291.93 2019.93 1287.08 2020.78 C 1277.98 2022.39 1268.79 2023.56 1259.53 2023.67 C 1216.42 2024.19 1173.19 2023.83 1130.09 2023.69 L 891.693 2023.22 L 746.436 2023.29 C 717.79 2023.29 687.46 2024.16 659.003 2021.12 C 646.601 2019.8 636.732 2013.76 627.878 2005.15 C 589.065 1967.45 551.464 1928.31 513.424 1889.95 L 267.799 1639.96 L 106.045 1476.42 C 78.16 1448.5 50.0862 1420.74 22.3196 1392.74 C 12.6257 1382.76 7.82872 1372.16 7.59173 1358.21 C 7.32513 1342.51 7.42277 1326.99 7.43211 1311.35 L 7.47926 1225.32 L 7.50208 984.305 C 7.82391 931.99 7.58744 879.674 6.79271 827.365 C 6.35027 806.4 3.73364 702.452 8.11092 687.249 C 12.7571 671.111 83.181 601.592 99.5697 585.042 L 196.698 487.454 L 358.839 320.823 C 421.468 256.12 484.74 192.044 548.646 128.603 L 599.295 77.8668 C 620.336 56.8044 639.708 31.5317 671.708 30.86 z M 804.165 460.746 C 798.881 467.105 788.814 476.653 782.716 482.776 L 745.052 520.59 C 738.613 527.06 730.065 535.245 724.622 542.321 C 717.835 551.829 695.545 573.5 686.163 582.58 C 671.947 596.339 655.033 614.651 640.558 627.619 C 634.82 635.527 603.388 665.341 594.409 674.335 L 499.428 769.711 C 484.823 784.312 458.018 809.655 445.66 824.414 C 439.198 834.488 413.739 858.679 403.55 868.844 L 326.932 945.241 C 315.919 956.358 311.883 959.541 304.206 973.196 C 328.732 998.792 355.249 1024.61 380.407 1049.76 L 541.673 1211.28 L 987.477 1664.09 C 993.668 1657.09 1002.51 1647.7 1009.63 1641.43 C 1011.06 1639.16 1023.72 1626.67 1026.44 1623.95 L 1065.17 1585.24 C 1075.12 1575.17 1083.44 1564.06 1093.3 1554.1 C 1120.32 1526.8 1147.53 1499.65 1174.67 1472.47 L 1590.66 1049.43 C 1634.08 1004.77 1679.53 961.526 1723.05 916.898 C 1732.07 907.647 1742 899.006 1750.13 888.922 C 1752.73 883.91 1755.43 881.239 1759.11 877.005 C 1747.2 859.105 1734.48 848.017 1719.28 832.871 L 1657.68 771.512 C 1646.72 760.488 1637.48 748.063 1626.7 737.311 C 1588.8 699.484 1551.75 660.893 1512.14 624.836 C 1504.34 617.732 1496.74 607.121 1488.67 599.168 C 1516.94 563.825 1541.58 524.828 1568.9 488.716 C 1575.84 479.553 1583.75 469.855 1589.78 460.151 C 1585.76 450.079 1582.37 443.542 1578.7 432.643 C 1540.64 452.266 1501.8 476.909 1466.85 501.434 C 1454.17 510.332 1433.33 523.236 1422.71 533.539 C 1415.64 526.222 1407.01 519.931 1399.79 512.769 C 1393.98 507.008 1388.68 500.294 1383.26 494.161 C 1363.87 472.233 1339.72 452.487 1320.92 430.326 L 834.376 430.187 C 828.137 437.893 811.719 453.658 804.165 460.746 z"/>
<path transform="translate(0,0)" fill="url(#Gradient1)" d="M 946.946 1067.05 C 977.002 1022.74 1012.04 982.043 1044.86 939.771 C 1059.07 921.471 1074.59 903.835 1089.66 886.236 C 1131.89 835.954 1175.56 786.902 1220.62 739.139 C 1303.19 651.821 1395.07 573.804 1494.61 506.481 L 1544.84 473.333 C 1549.45 470.264 1552 466.945 1557.1 465.13 L 1558.48 465.816 C 1557.91 469.102 1556.8 470.249 1554.86 472.947 L 1406.91 678.352 C 1309.25 817.713 1212.76 957.884 1117.44 1098.85 L 1008.71 1259.77 C 998.169 1275.43 974.492 1315.48 964.085 1327.37 C 960.086 1328.96 955.445 1324.21 953.635 1321.04 C 946.002 1314.84 930.53 1298.52 923.049 1291.02 L 864.158 1232.06 L 797.494 1165.61 C 787.542 1155.69 768.828 1138 760.976 1127.3 C 752.16 1117.19 742.805 1109.32 733.125 1100.15 C 730.021 1097.21 726.859 1093 723.967 1089.73 C 709.12 1072.94 692.92 1056.74 675.732 1042.35 C 671.938 1039.18 668.63 1036.93 665.275 1033.22 C 673.895 1021.17 784.936 917.593 792.921 915.599 C 802.357 920.761 838.838 958.809 849.381 969.366 L 946.946 1067.05 z"/>
<path transform="translate(0,0)" fill="rgb(48,192,144)" d="M 760.976 1127.3 C 763.742 1127.72 765.221 1128.69 767.2 1130.65 C 787.186 1150.37 807.069 1170.83 826.899 1190.68 L 954.313 1318.38 L 953.635 1321.04 C 946.002 1314.84 930.53 1298.52 923.049 1291.02 L 864.158 1232.06 L 797.494 1165.61 C 787.542 1155.69 768.828 1138 760.976 1127.3 z"/>
<path transform="translate(0,0)" fill="rgb(48,192,144)" d="M 1616.54 1688.07 C 1603.45 1703.77 1580.8 1724.98 1565.99 1740.15 L 1483.2 1825.85 L 1362.59 1948.22 C 1343.74 1967.44 1325.47 1987.35 1306.33 2006.25 C 1302.79 2009.75 1291.93 2019.93 1287.08 2020.78 C 1277.98 2022.39 1268.79 2023.56 1259.53 2023.67 C 1216.42 2024.19 1173.19 2023.83 1130.09 2023.69 L 891.693 2023.22 L 746.436 2023.29 C 717.79 2023.29 687.46 2024.16 659.003 2021.12 C 646.601 2019.8 636.732 2013.76 627.878 2005.15 C 589.065 1967.45 551.464 1928.31 513.424 1889.95 L 267.799 1639.96 L 106.045 1476.42 C 78.16 1448.5 50.0862 1420.74 22.3196 1392.74 C 12.6257 1382.76 7.82872 1372.16 7.59173 1358.21 C 7.32513 1342.51 7.42277 1326.99 7.43211 1311.35 L 7.47926 1225.32 L 7.50208 984.305 C 7.82391 931.99 7.58744 879.674 6.79271 827.365 C 6.35027 806.4 3.73364 702.452 8.11092 687.249 C 12.7571 671.111 83.181 601.592 99.5697 585.042 L 196.698 487.454 L 358.839 320.823 C 421.468 256.12 484.74 192.044 548.646 128.603 L 599.295 77.8668 C 620.336 56.8044 639.708 31.5317 671.708 30.86 C 675.407 31.0129 683.003 30.8286 685.859 32.6224 C 683.694 38.7444 679.401 43.8957 675.943 49.3309 C 658.94 76.052 640.781 100.887 622.113 126.337 C 605.728 148.673 590.595 173.501 574.868 196.444 L 471.377 347.794 C 462.959 360.343 454.761 372.581 446.047 384.925 C 438.609 395.46 425.179 412.045 419.797 423.368 C 455.317 426.598 501.226 425.99 537.13 426.216 C 596.804 426.768 656.481 426.901 716.156 426.615 C 741.071 426.443 765.986 426.523 790.899 426.854 C 802.797 427.005 820.485 426.748 831.748 428.425 C 826.544 434.727 804.417 455.353 803.494 459.439 L 804.165 460.746 C 798.881 467.105 788.814 476.653 782.716 482.776 L 745.052 520.59 C 738.613 527.06 730.065 535.245 724.622 542.321 C 717.835 551.829 695.545 573.5 686.163 582.58 C 671.947 596.339 655.033 614.651 640.558 627.619 C 634.82 635.527 603.388 665.341 594.409 674.335 L 499.428 769.711 C 484.823 784.312 458.018 809.655 445.66 824.414 C 439.198 834.488 413.739 858.679 403.55 868.844 L 326.932 945.241 C 315.919 956.358 311.883 959.541 304.206 973.196 C 328.732 998.792 355.249 1024.61 380.407 1049.76 L 541.673 1211.28 L 987.477 1664.09 C 993.668 1657.09 1002.51 1647.7 1009.63 1641.43 L 1010.11 1643.14 C 1005.6 1649.64 995.822 1658.66 989.823 1665.66 C 1001.36 1677.35 1012 1690.38 1023.53 1702.35 C 1066.84 1701.31 1110.74 1702.08 1154.13 1701.96 C 1269.81 1701.63 1385.63 1702.16 1501.29 1700.41 C 1530.75 1700.31 1559.65 1697.97 1588.81 1693.84 C 1594.21 1693.08 1598.91 1692.59 1604.31 1691.22 C 1607.96 1690.29 1613.45 1687.16 1616.54 1688.07 z"/>
<path transform="translate(0,0)" fill="rgb(11,117,95)" d="M 419.797 423.368 C 455.317 426.598 501.226 425.99 537.13 426.216 C 596.804 426.768 656.481 426.901 716.156 426.615 C 741.071 426.443 765.986 426.523 790.899 426.854 C 802.797 427.005 820.485 426.748 831.748 428.425 C 826.544 434.727 804.417 455.353 803.494 459.439 L 804.165 460.746 C 798.881 467.105 788.814 476.653 782.716 482.776 L 745.052 520.59 C 738.613 527.06 730.065 535.245 724.622 542.321 C 717.835 551.829 695.545 573.5 686.163 582.58 C 671.947 596.339 655.033 614.651 640.558 627.619 C 634.82 635.527 603.388 665.341 594.409 674.335 L 499.428 769.711 C 484.823 784.312 458.018 809.655 445.66 824.414 C 439.198 834.488 413.739 858.679 403.55 868.844 L 326.932 945.241 L 325.281 942.792 C 323.519 943.963 317.98 949.738 316.156 951.556 C 319.82 936.059 323.092 915.831 326.293 899.724 C 334.803 858.376 342.81 816.926 350.313 775.384 L 396.674 541.208 C 402.922 510.082 408.025 478.593 414.152 447.434 C 415.682 439.653 416.941 430.715 419.797 423.368 z"/>
<path transform="translate(0,0)" fill="rgb(48,192,144)" d="M 325.281 942.792 L 412.115 855.325 C 417.609 849.797 439.973 825.734 445.66 824.414 C 439.198 834.488 413.739 858.679 403.55 868.844 L 326.932 945.241 L 325.281 942.792 z"/>
<path transform="translate(0,0)" fill="rgb(48,192,144)" d="M 640.558 627.619 C 640.546 627.312 640.484 627.003 640.523 626.698 C 641.218 621.287 714.482 548.529 722.91 541.895 L 724.622 542.321 C 717.835 551.829 695.545 573.5 686.163 582.58 C 671.947 596.339 655.033 614.651 640.558 627.619 z"/>
<path transform="translate(0,0)" fill="rgb(3,58,94)" d="M 1750.13 888.922 C 1752.84 889.422 1753.44 888.981 1756.02 888.023 C 1758.38 892.152 1750.86 940.921 1749.91 949.311 L 1719.46 1207.19 L 1677.89 1566.21 C 1675.78 1582.68 1673.23 1599.09 1670.24 1615.42 C 1669.36 1620.01 1665.5 1635.9 1665.26 1639.03 C 1656.78 1648.7 1645.76 1658.67 1636.54 1668.03 C 1632.02 1672.62 1621.02 1684.52 1616.54 1688.07 C 1613.45 1687.16 1607.96 1690.29 1604.31 1691.22 C 1598.91 1692.59 1594.21 1693.08 1588.81 1693.84 C 1559.65 1697.97 1530.75 1700.31 1501.29 1700.41 C 1385.63 1702.16 1269.81 1701.63 1154.13 1701.96 C 1110.74 1702.08 1066.84 1701.31 1023.53 1702.35 C 1012 1690.38 1001.36 1677.35 989.823 1665.66 C 995.822 1658.66 1005.6 1649.64 1010.11 1643.14 L 1009.63 1641.43 C 1011.06 1639.16 1023.72 1626.67 1026.44 1623.95 L 1065.17 1585.24 C 1075.12 1575.17 1083.44 1564.06 1093.3 1554.1 C 1120.32 1526.8 1147.53 1499.65 1174.67 1472.47 L 1590.66 1049.43 C 1634.08 1004.77 1679.53 961.526 1723.05 916.898 C 1732.07 907.647 1742 899.006 1750.13 888.922 z"/>
</svg>