<svg version="1.1" xmlns="http://www.w3.org/2000/svg" style="display: block;" viewBox="0 0 2048 866" width="679" height="287" preserveAspectRatio="none">
<path transform="translate(0,0)" fill="rgb(40,153,162)" d="M 185.676 149.781 C 195.851 148.663 212.275 149.232 222.92 149.264 L 285.018 149.307 L 360.917 149.264 C 373.978 149.262 393.073 148.722 405.628 150.027 C 420.273 159.79 426.579 169.431 438.682 181.804 C 448.17 191.503 457.835 201.175 467.426 210.785 L 540.125 283.563 C 551.959 295.4 564.015 307.249 575.749 319.159 C 578.457 321.908 583.609 327.878 584.092 331.506 C 585.483 341.962 585.091 353.829 585.064 364.417 L 584.883 420.221 C 584.856 434.496 585.816 480.707 584.181 491.865 C 581.558 495.038 561.345 516.667 558.809 518.121 C 551.985 531.248 484.835 594.932 470.043 609.698 L 434.634 645.021 C 429.847 649.792 420.249 659.829 415.337 663.869 C 412.784 667.315 388.214 692.648 384.98 694.319 C 380.264 699.534 371.284 709.903 365.106 712.708 C 358.851 713.813 313.906 713.542 305.285 713.354 C 266.745 712.511 224.113 714.774 186.045 712.973 C 184.74 712.079 183.443 711.173 182.154 710.256 C 168.529 700.55 147.666 678.388 135.181 665.899 L 61.2741 591.974 C 50.3255 580.968 39.3101 570.028 28.2285 559.156 C 16.3094 547.661 7.34396 543.833 4.4841 526.823 C 2.47946 507.737 2.39409 340.629 5.10514 332.05 L 5.19111 331.403 C 6.39113 322.871 27.3339 304.331 34.1174 297.541 L 79.9341 251.69 C 108.03 223.583 136.171 193.981 165.958 167.922 C 172.438 162.253 178.957 154.779 185.676 149.781 z M 100.494 403.561 C 97.825 407.094 94.3784 411.913 91.5919 415.206 C 97.0022 419.066 112.276 437.703 119.166 444.683 L 216.07 541.923 C 231.839 557.879 245.085 575.213 263.246 589.207 C 268.441 593.21 275.332 602.848 280.976 605.724 C 283.59 604.092 284.345 603.471 286.607 601.404 C 290.429 596.825 300.434 589.993 305.459 584.208 C 365.133 515.502 437.082 454.83 498.346 387.79 C 498.517 386.203 498.231 384.189 497.111 382.979 C 475.494 359.645 451.545 338.055 430.94 313.74 C 417.937 298.395 392.991 279.195 384.255 262.169 C 352.696 262.744 321.131 262.923 289.567 262.707 C 280.783 262.704 248.658 263.193 241.475 261.414 C 236.841 267.143 230.409 273.82 225.013 278.867 C 207.07 295.652 191.318 313.677 174.981 331.896 C 167.776 339.931 157.32 346.758 149.704 354.457 C 132.989 370.486 116.852 387.171 100.494 403.561 z"/>
<path transform="translate(0,0)" fill="rgb(47,184,145)" d="M 5.10514 332.05 L 5.19111 331.403 C 6.39113 322.871 27.3339 304.331 34.1174 297.541 L 79.9341 251.69 C 108.03 223.583 136.171 193.981 165.958 167.922 C 172.438 162.253 178.957 154.779 185.676 149.781 C 188.48 150.003 192.625 150.025 194.904 151.333 C 192.963 158.256 179.712 175.518 175.291 182.225 C 159.3 206.478 137.85 232.64 123.817 258.038 C 141.224 258.201 233.088 257.747 241.475 261.414 C 236.841 267.143 230.409 273.82 225.013 278.867 C 207.07 295.652 191.318 313.677 174.981 331.896 C 167.776 339.931 157.32 346.758 149.704 354.457 C 132.989 370.486 116.852 387.171 100.494 403.561 C 97.825 407.094 94.3784 411.913 91.5919 415.206 C 97.0022 419.066 112.276 437.703 119.166 444.683 L 216.07 541.923 C 231.839 557.879 245.085 575.213 263.246 589.207 C 268.441 593.21 275.332 602.848 280.976 605.724 C 283.59 604.092 284.345 603.471 286.607 601.404 C 286.191 605.069 282.374 608.304 279.666 611.106 C 283.274 613.401 287.841 616.129 291.219 618.609 C 345.288 617.5 403.943 620.615 457.605 617.026 C 451.994 624.81 415.506 658.633 414.794 662.481 L 415.337 663.869 C 412.784 667.315 388.214 692.648 384.98 694.319 C 380.264 699.534 371.284 709.903 365.106 712.708 C 358.851 713.813 313.906 713.542 305.285 713.354 C 266.745 712.511 224.113 714.774 186.045 712.973 C 184.74 712.079 183.443 711.173 182.154 710.256 C 168.529 700.55 147.666 678.388 135.181 665.899 L 61.2741 591.974 C 50.3255 580.968 39.3101 570.028 28.2285 559.156 C 16.3094 547.661 7.34396 543.833 4.4841 526.823 C 2.47946 507.737 2.39409 340.629 5.10514 332.05 z"/>
<path transform="translate(0,0)" fill="rgb(9,117,96)" d="M 123.817 258.038 C 141.224 258.201 233.088 257.747 241.475 261.414 C 236.841 267.143 230.409 273.82 225.013 278.867 C 207.07 295.652 191.318 313.677 174.981 331.896 C 167.776 339.931 157.32 346.758 149.704 354.457 C 132.989 370.486 116.852 387.171 100.494 403.561 C 98.7326 402.449 98.5349 402.254 97.2912 400.582 C 97.0713 395.638 103.527 368.123 104.818 361.137 L 117.451 292.941 C 119.433 282.117 121.23 268.294 123.817 258.038 z"/>
<path transform="translate(0,0)" fill="rgb(60,185,157)" d="M 5.10514 332.05 C 9.3447 338.396 4.27672 494.064 6.40943 514.376 C 6.73844 517.51 6.53142 524.013 4.4841 526.823 C 2.47946 507.737 2.39409 340.629 5.10514 332.05 z"/>
<path transform="translate(0,0)" fill="rgb(60,185,157)" d="M 365.106 712.708 C 365.325 708.506 378.918 696.631 382.55 693.854 L 384.98 694.319 C 380.264 699.534 371.284 709.903 365.106 712.708 z"/>
<path transform="translate(0,0)" fill="rgb(5,51,89)" d="M 286.607 601.404 C 290.429 596.825 300.434 589.993 305.459 584.208 C 365.133 515.502 437.082 454.83 498.346 387.79 C 499.414 396.432 495.528 429.076 494.486 439.661 C 491.028 476.54 487.121 513.377 482.765 550.161 C 480.9 565.793 477.959 583.055 476.361 598.096 C 471.136 603.938 463.715 612.436 457.605 617.026 C 403.943 620.615 345.288 617.5 291.219 618.609 C 287.841 616.129 283.274 613.401 279.666 611.106 C 282.374 608.304 286.191 605.069 286.607 601.404 z"/>
<path transform="translate(0,0)" fill="rgb(138,209,205)" d="M 476.361 598.096 C 489.461 587.992 550.148 521.621 558.809 518.121 C 551.985 531.248 484.835 594.932 470.043 609.698 L 434.634 645.021 C 429.847 649.792 420.249 659.829 415.337 663.869 L 414.794 662.481 C 415.506 658.633 451.994 624.81 457.605 617.026 C 463.715 612.436 471.136 603.938 476.361 598.096 z"/>
<path transform="translate(0,0)" fill="rgb(40,153,162)" d="M 1506.03 334.97 C 1510.59 327.365 1514.02 323.18 1523.1 325.363 C 1528.51 327.753 1536.68 330.242 1538.1 336.107 C 1541.74 351.102 1539.99 375.477 1540.11 391.449 C 1540.3 416.889 1542.79 448.23 1540.2 472.978 C 1539.53 480.045 1537.62 486.937 1534.55 493.339 C 1527.67 507.825 1518.53 513.599 1503.88 518.957 C 1468.22 531.999 1430.37 514.627 1418.31 478.517 C 1407.92 447.419 1424.22 400.928 1457.11 390.312 C 1471.91 385.532 1490.06 388.36 1504.98 391.126 C 1505.03 382.35 1504.25 340.093 1506.03 334.97 z M 1484.25 487.116 C 1509.38 484.907 1506.65 450.174 1505.83 431.943 C 1492.82 424.146 1490.28 422.88 1475.19 423.349 C 1467.21 424.191 1461.87 425.575 1456.66 432.284 C 1447.19 444.468 1446.51 471.003 1459.59 481.015 C 1467.87 487.359 1474.65 487.287 1484.25 487.116 z"/>
<path transform="translate(0,0)" fill="rgb(138,209,205)" d="M 1506.03 334.97 C 1510.59 327.365 1514.02 323.18 1523.1 325.363 C 1516.56 329.75 1513.87 330.609 1507.73 336.193 L 1506.03 334.97 z"/>
<path transform="translate(0,0)" fill="rgb(47,184,145)" d="M 1638.65 339.947 C 1638.72 339.605 1638.79 339.264 1638.87 338.923 C 1642.92 320.85 1661.51 316.708 1671.58 333.614 C 1674.59 341.497 1674.72 405.441 1673.14 415.954 C 1673.53 429.004 1674.26 472.663 1670.82 483.215 C 1671.06 501.598 1655.07 513.258 1639.43 518.366 C 1605.49 529.446 1566.48 516.923 1555.37 480.58 C 1549.04 459.847 1550.96 437.843 1560.36 418.279 C 1568.62 401.841 1587.91 388.397 1606.45 387.715 C 1613.99 387.482 1629.41 388.02 1635.91 385.997 C 1640.95 376.026 1637.7 352.892 1638.65 339.947 z M 1625.67 484.1 C 1633.07 474.292 1635.44 467.906 1638.3 456.147 C 1638.7 446.314 1639.24 436.191 1639.29 426.372 L 1638.43 426.32 C 1631.16 425.83 1623.97 423.009 1616.5 422.35 C 1596.66 420.601 1586.76 434.424 1585.84 452.608 C 1585.39 461.462 1587.44 470.342 1593.2 477.383 C 1594.91 479.363 1598.26 482.579 1600.24 484.391 C 1612.38 486.007 1613.69 486.112 1625.67 484.1 z"/>
<path transform="translate(0,0)" fill="rgb(60,185,157)" d="M 1670.82 483.215 C 1666.99 473.957 1668.15 437.28 1669.94 426.069 L 1669.97 427.985 C 1671.68 423.332 1671.52 420.568 1671.65 415.701 L 1673.14 415.954 C 1673.53 429.004 1674.26 472.663 1670.82 483.215 z"/>
<path transform="translate(0,0)" fill="rgb(138,209,205)" d="M 1638.65 339.947 C 1638.72 339.605 1638.79 339.264 1638.87 338.923 C 1642.92 320.85 1661.51 316.708 1671.58 333.614 L 1670.07 334.03 L 1663.49 329.043 C 1657.72 328.814 1653.59 328.131 1648.19 330.131 C 1643.95 331.698 1641.64 340.905 1638.65 339.947 z"/>
<path transform="translate(0,0)" fill="rgb(190,219,197)" d="M 1638.3 456.147 C 1642.85 464.179 1634.83 484.132 1625.67 484.1 C 1633.07 474.292 1635.44 467.906 1638.3 456.147 z"/>
<path transform="translate(0,0)" fill="rgb(5,51,89)" d="M 1068.39 383.254 C 1069.18 383.172 1069.96 383.109 1070.74 383.066 C 1088.88 382.072 1106.71 386.434 1120.47 398.649 C 1132.89 388.679 1144.17 382.17 1160.44 384.288 C 1225.91 392.804 1215.13 475.963 1210.74 519.904 C 1203.67 520.382 1183.02 521.661 1180.36 513.6 C 1171.61 487.107 1188.33 448.638 1170.96 424.854 C 1164.58 417.955 1151.12 416.208 1144.67 423.167 C 1131.16 437.744 1135.42 461.9 1135.67 482.25 C 1135.61 501.06 1142.06 535.135 1103.23 517.964 C 1098.22 515.749 1099.82 498.164 1099.51 492.327 C 1098.49 473.121 1101.43 450.71 1099.05 431.725 C 1088.17 421.994 1092.47 419.617 1075.08 417.266 C 1034.43 432.316 1064.29 484.353 1051.09 514.986 C 1047.99 522.175 1026.74 521.704 1022.05 517.863 C 1015.73 512.684 1020.78 492.633 1019.89 485.109 C 1019.17 442.601 1014.22 392.105 1068.39 383.254 z"/>
<path transform="translate(0,0)" fill="rgb(5,51,89)" d="M 807.716 341.27 C 819.833 339.732 824.298 343.389 829.572 354.092 C 843.184 382.479 855.745 412.367 868.203 441.253 C 873.536 453.618 903.88 509.237 901.234 518.45 C 897.578 521.223 873.709 521.629 870.631 520.157 C 859.241 514.711 849.036 486.13 843.921 474.836 C 842.077 474.567 819.701 474.773 816.5 474.766 C 803.05 474.819 787.601 475.209 774.358 474.286 C 766.057 489.571 760.177 508.125 748.718 520.472 C 741.761 520.627 730.385 521.527 724.339 518.067 C 719.26 515.162 721.328 504.017 723.175 499.559 C 730.42 482.07 738.805 464.967 746.64 447.705 C 762.214 413.395 776.371 378.01 795.83 345.662 C 798.043 341.983 803.682 341.82 807.716 341.27 z M 791.459 438.931 L 815.25 438.847 C 820.259 438.899 825.927 438.842 830.869 439.107 C 826.222 432.166 811.432 397.003 809.356 395.541 C 802.858 409.779 796.888 424.252 791.459 438.931 z"/>
<path transform="translate(0,0)" fill="rgb(47,184,145)" d="M 1858.33 388.269 C 1922.58 380.341 1945.15 443.148 1920.01 494.631 C 1913.04 508.919 1895.06 517.016 1880.18 520.5 C 1868.17 524.034 1856.01 522.666 1844.9 517.027 C 1830.03 509.42 1818.82 496.172 1813.79 480.244 C 1808.11 462.431 1807.97 434.726 1817.08 418.044 C 1826.89 400.066 1839.99 393.968 1858.33 388.269 z M 1843.19 470.572 C 1853.21 486.15 1859.37 488.768 1877.53 486.935 C 1900.43 475.104 1908.19 436.338 1880.1 425.124 C 1875.12 423.137 1865.47 423.738 1859.89 424.04 C 1840.67 436.447 1841.28 450.06 1843.19 470.572 z"/>
<path transform="translate(0,0)" fill="rgb(47,184,145)" d="M 1737.57 387.369 C 1801.36 388.551 1815.75 451.666 1787.84 501.061 C 1780.67 513.746 1760.78 519.068 1747.24 520.94 C 1746.67 521.029 1746.09 521.094 1745.51 521.135 C 1739.87 521.554 1731.93 520.343 1726.5 518.822 C 1663.04 501.042 1668.49 392.81 1737.57 387.369 z M 1744.09 486.935 C 1781.07 476.045 1777.05 421.557 1739.45 424.188 C 1721.96 427.572 1711.11 446.103 1714.53 463.026 C 1716.2 470.987 1721 477.946 1727.84 482.35 C 1733.06 485.681 1737.89 487.478 1744.09 486.935 z"/>
<path transform="translate(0,0)" fill="rgb(5,51,89)" d="M 1331.65 385.325 C 1334.6 384.99 1337.57 384.819 1340.54 384.812 C 1398.57 384.143 1404.8 434.3 1402.9 479.178 C 1402.4 490.837 1404.65 507.266 1400.61 518.108 C 1399.49 521.134 1374.7 520.645 1372.41 516.595 C 1364.26 501.79 1369.85 473.769 1368.87 456.7 C 1367.69 436.133 1369.24 437.133 1354.68 422.408 C 1346.19 415.438 1323.98 423.52 1322.07 435.789 C 1318.36 459.585 1324.59 485.127 1320.14 509.125 C 1318.9 515.797 1315.37 517.807 1309.96 520.766 C 1285.12 521.929 1285.61 515.61 1286.72 492.996 C 1288.94 447.666 1275.59 399.649 1331.65 385.325 z"/>
<path transform="translate(0,0)" fill="rgb(5,51,89)" d="M 972.453 383.365 C 989.864 381.903 1002.92 380.273 1008.13 399.299 C 1007.62 401.999 1007.05 404.69 1006.43 407.368 C 999.683 435.886 978.095 413.484 960.869 423.54 C 948.932 430.508 951.369 448.08 951.421 459.458 C 951.5 477.052 952.947 496.212 949.076 513.404 C 943.873 521.336 927.46 522.839 919.875 519.365 C 915.755 515.71 915.368 506.647 915.94 501.406 C 921.908 446.753 897.968 390.346 972.453 383.365 z"/>
<path transform="translate(0,0)" fill="rgb(5,51,89)" d="M 1238.77 384.409 C 1248.45 383.748 1253.55 384.205 1263.03 385.934 C 1266.27 398.03 1267.53 414.071 1267.32 427.038 C 1266.88 454.103 1268.62 482.371 1265.97 509.306 C 1265.61 513.004 1263.46 515.997 1260.94 518.558 C 1253.22 520.656 1239.88 521.818 1233.56 516.272 C 1229.62 506.651 1233.02 456.946 1232.08 444.06 C 1231.06 430.063 1233.21 409.117 1232.81 394.393 C 1232.65 388.903 1234.02 386.983 1238.77 384.409 z"/>
<path transform="translate(0,0)" fill="rgb(5,51,89)" d="M 1241.3 321.293 C 1272.2 317.211 1282.71 347.834 1261.65 361.932 C 1246.15 362.808 1229.59 362.256 1229.51 341.896 C 1229.48 333.652 1235.47 326.337 1241.3 321.293 z"/>
<path transform="translate(0,0)" fill="rgb(40,153,162)" d="M 1984.59 423.632 C 1991.51 413.696 2000.74 399.421 2009.58 391.61 C 2013.98 387.724 2029.51 386.953 2035.42 387.939 C 2040.54 388.791 2042.15 388.813 2045.15 392.787 C 2045.22 397.632 2044.08 398.473 2040.72 402.31 C 2039.12 405.208 2017.36 434.509 2015.25 436.873 L 2004.28 452.106 C 2010.15 460.723 2042.51 511.557 2048 516.343 L 2048 520.119 C 2036.22 520.254 2024.45 520.208 2012.67 519.982 C 2002.85 513.315 1988.64 490.251 1983.1 479.512 C 1974.46 491.544 1963.84 510.022 1953.58 519.962 C 1945.06 520.349 1936.53 519.655 1928.19 517.897 C 1925.07 517.246 1923.13 516.908 1921.58 514.518 C 1926.83 501.279 1954.22 469.754 1963.59 452.208 C 1952.24 434.683 1934.52 409.315 1926.27 391.172 C 1961.29 379.883 1968.43 397.403 1984.59 423.632 z"/>
<path transform="translate(0,0)" fill="rgb(40,153,162)" d="M 2015.25 436.873 C 2015.54 434.976 2015.63 435.907 2014.75 434.026 L 2015.51 433.078 L 2015.27 432.905 L 2013.37 434.313 L 2011.88 433.874 C 2012.31 433.136 2012.76 432.407 2013.22 431.689 C 2016.78 426.198 2035.08 403.518 2040.72 402.31 C 2039.12 405.208 2017.36 434.509 2015.25 436.873 z"/>
</svg>